# xmcd CD database file
#
# Track frame offsets:
#	150
#	14803
#	30502
#	46632
#	66856
#	82258
#	98541
#	116095
#	133123
#	144167
#	160538
#	175372
#	196093
#	209666
#	224598
#	252644
#	263749
#
# Disc length: 3680 seconds
#
# Revision: 0
# Processed by: cddbd v1.5.2PL0 Copyright (c) Steve Scherf et al.
# Submitted via: CDex 1.81
#
DISCID=f80e5e11
DTITLE=Gentlemen of jazz - A perfect day
DYEAR=2006
DGENRE=Jazz
TTITLE0=Down by the riverside
TTITLE1=Blues for tiny Max
TTITLE2=In the sweet by and bye
TTITLE3=Glory of love
TTITLE4=My old Kentuckey home
TTITLE5=Nearer my god to thee
TTITLE6=Lily of the valley
TTITLE7=Goin' home
TTITLE8=Waltz for Satchmo
TTITLE9=Straight from the wood
TTITLE10=Farewell to New Orleans
TTITLE11=Pass me not O gentle savior
TTITLE12=I'm feeling blue
TTITLE13=Just a closer walk with thee
TTITLE14=In the upper garden
TTITLE15=Second line
TTITLE16=A Perfect day
EXTD=YEAR: 2006
EXTT0=
EXTT1=
EXTT2=
EXTT3=
EXTT4=
EXTT5=
EXTT6=
EXTT7=
EXTT8=
EXTT9=
EXTT10=
EXTT11=
EXTT12=
EXTT13=
EXTT14=
EXTT15=
EXTT16=
PLAYORDER=
